# xmcd
#
# Track frame offsets:
#	150
#	17927
#	36520
#	53715
#	69705
#	84200
#	99880
#	117065
#	130752
#	152432
#	163935
#	185895
#
# Disc length: 2685 seconds
#
# Revision: 1
# Processed by: cddbd v1.5.2PL0 Copyright (c) Steve Scherf et al.
# Submitted via: audiograbber 1.83.01
#
DISCID=990a7b0c
DTITLE=Aaron Owens - Forever Didn´t Last That Long Aaron Owens
DYEAR=2000
DGENRE=Country
TTITLE0=I Can´t Get Use To
TTITLE1=Holding On Letting Go
TTITLE2=Let´s Start A Fire
TTITLE3=Blue Collar Man Like Me
TTITLE4=What´s Left Of My Heart
TTITLE5=Distant Memories
TTITLE6=Wore-out Gravel Road
TTITLE7=Forever Diden´t Last
TTITLE8=Baby I´m Yours
TTITLE9=I Do It For The Women
TTITLE10=Ride On Cowboys
TTITLE11=I´m Falling In Love
EXTD=
EXTT0=
EXTT1=
EXTT2=
EXTT3=
EXTT4=
EXTT5=
EXTT6=
EXTT7=
EXTT8=
EXTT9=
EXTT10=
EXTT11=
PLAYORDER=
